<svg width="32" height="32" xmlns="http://www.w3.org/2000/svg">

 <g>
  <title>background</title>
  <rect fill="none" id="canvas_background" height="402" width="582" y="-1" x="-1"/>
 </g>
 <g>
  <title>Layer 1</title>
  <path id="svg_1" fill="#19c2bc" d="m22.285,15.349l-6.285,6.195l-6.285,-6.196c-0.394,-0.391 -1.034,-0.391 -1.428,0c-0.394,0.391 -0.394,1.024 0,1.414l6.999,6.899c0.379,0.375 1.048,0.377 1.429,0l6.999,-6.9c0.394,-0.39 0.394,-1.024 0,-1.414c-0.395,-0.389 -1.035,-0.389 -1.429,0.002z"/>
  <path id="svg_2" fill="#19c2bc" d="m15.286,16.662c0.379,0.375 1.048,0.377 1.429,0l6.999,-6.899c0.394,-0.391 0.394,-1.024 0,-1.414c-0.394,-0.391 -1.034,-0.391 -1.428,0l-6.286,6.195l-6.285,-6.195c-0.394,-0.391 -1.034,-0.391 -1.428,0c-0.394,0.391 -0.394,1.024 0,1.414l6.999,6.899z"/>
 </g>
</svg>